<svg width="24" height="24" viewBox="0 0 74 74" fill="none" xmlns="http://www.w3.org/2000/svg">
<circle cx="37" cy="33" r="12" fill="#D9D9D9"/>
<g style="mix-blend-mode:color" filter="url(#filter0_d_1_12)">
<path d="M69 33C69 50.6731 54.6731 65 37 65C19.3269 65 5 50.6731 5 33C5 15.3269 19.3269 1 37 1C54.6731 1 69 15.3269 69 33Z" fill="red"/>
<path d="M37 65.5C54.9493 65.5 69.5 50.9493 69.5 33C69.5 15.0507 54.9493 0.5 37 0.5C19.0507 0.5 4.5 15.0507 4.5 33C4.5 50.9493 19.0507 65.5 37 65.5Z" stroke="#D04343"/>
</g>
<g style="mix-blend-mode:color" filter="url(#filter1_d_1_12)">
<path d="M61 33C61 46.2548 50.2548 57 37 57C23.7452 57 13 46.2548 13 33C13 19.7452 23.7452 9 37 9C50.2548 9 61 19.7452 61 33Z" fill="#D9D9D9"/>
<path d="M37 57.5C50.531 57.5 61.5 46.531 61.5 33C61.5 19.469 50.531 8.5 37 8.5C23.469 8.5 12.5 19.469 12.5 33C12.5 46.531 23.469 57.5 37 57.5Z" stroke="#D04343"/>
</g>
<g style="mix-blend-mode:color" filter="url(#filter2_d_1_12)">
<path d="M64 33C64 47.9117 51.9117 60 37 60C22.0883 60 10 47.9117 10 33C10 18.0883 22.0883 6 37 6C51.9117 6 64 18.0883 64 33Z" fill="#D9D9D9"/>
<path d="M37 60.5C52.1878 60.5 64.5 48.1878 64.5 33C64.5 17.8122 52.1878 5.5 37 5.5C21.8122 5.5 9.5 17.8122 9.5 33C9.5 48.1878 21.8122 60.5 37 60.5Z" stroke="#D04343"/>
</g>
<g style="mix-blend-mode:color" filter="url(#filter3_d_1_12)">
<circle cx="37" cy="33" r="22" fill="#D9D9D9"/>
<circle cx="37" cy="33" r="22.5" stroke="#D04343"/>
</g>
<g style="mix-blend-mode:color" filter="url(#filter4_d_1_12)">
<circle cx="37" cy="33" r="18" fill="#D04343"/>
<circle cx="37" cy="33" r="19" stroke="#D04343" stroke-width="2"/>
</g>
<defs>
<filter id="filter0_d_1_12" x="0" y="0" width="74" height="74" filterUnits="userSpaceOnUse" color-interpolation-filters="sRGB">
<feFlood flood-opacity="0" result="BackgroundImageFix"/>
<feColorMatrix in="SourceAlpha" type="matrix" values="0 0 0 0 0 0 0 0 0 0 0 0 0 0 0 0 0 0 127 0" result="hardAlpha"/>
<feOffset dy="4"/>
<feGaussianBlur stdDeviation="2"/>
<feComposite in2="hardAlpha" operator="out"/>
<feColorMatrix type="matrix" values="0 0 0 0 0 0 0 0 0 0 0 0 0 0 0 0 0 0 0.25 0"/>
<feBlend mode="normal" in2="BackgroundImageFix" result="effect1_dropShadow_1_12"/>
<feBlend mode="normal" in="SourceGraphic" in2="effect1_dropShadow_1_12" result="shape"/>
</filter>
<filter id="filter1_d_1_12" x="8" y="8" width="58" height="58" filterUnits="userSpaceOnUse" color-interpolation-filters="sRGB">
<feFlood flood-opacity="0" result="BackgroundImageFix"/>
<feColorMatrix in="SourceAlpha" type="matrix" values="0 0 0 0 0 0 0 0 0 0 0 0 0 0 0 0 0 0 127 0" result="hardAlpha"/>
<feOffset dy="4"/>
<feGaussianBlur stdDeviation="2"/>
<feComposite in2="hardAlpha" operator="out"/>
<feColorMatrix type="matrix" values="0 0 0 0 0 0 0 0 0 0 0 0 0 0 0 0 0 0 0.25 0"/>
<feBlend mode="normal" in2="BackgroundImageFix" result="effect1_dropShadow_1_12"/>
<feBlend mode="normal" in="SourceGraphic" in2="effect1_dropShadow_1_12" result="shape"/>
</filter>
<filter id="filter2_d_1_12" x="5" y="5" width="64" height="64" filterUnits="userSpaceOnUse" color-interpolation-filters="sRGB">
<feFlood flood-opacity="0" result="BackgroundImageFix"/>
<feColorMatrix in="SourceAlpha" type="matrix" values="0 0 0 0 0 0 0 0 0 0 0 0 0 0 0 0 0 0 127 0" result="hardAlpha"/>
<feOffset dy="4"/>
<feGaussianBlur stdDeviation="2"/>
<feComposite in2="hardAlpha" operator="out"/>
<feColorMatrix type="matrix" values="0 0 0 0 0 0 0 0 0 0 0 0 0 0 0 0 0 0 0.25 0"/>
<feBlend mode="normal" in2="BackgroundImageFix" result="effect1_dropShadow_1_12"/>
<feBlend mode="normal" in="SourceGraphic" in2="effect1_dropShadow_1_12" result="shape"/>
</filter>
<filter id="filter3_d_1_12" x="10" y="10" width="54" height="54" filterUnits="userSpaceOnUse" color-interpolation-filters="sRGB">
<feFlood flood-opacity="0" result="BackgroundImageFix"/>
<feColorMatrix in="SourceAlpha" type="matrix" values="0 0 0 0 0 0 0 0 0 0 0 0 0 0 0 0 0 0 127 0" result="hardAlpha"/>
<feOffset dy="4"/>
<feGaussianBlur stdDeviation="2"/>
<feComposite in2="hardAlpha" operator="out"/>
<feColorMatrix type="matrix" values="0 0 0 0 0 0 0 0 0 0 0 0 0 0 0 0 0 0 0.25 0"/>
<feBlend mode="normal" in2="BackgroundImageFix" result="effect1_dropShadow_1_12"/>
<feBlend mode="normal" in="SourceGraphic" in2="effect1_dropShadow_1_12" result="shape"/>
</filter>
<filter id="filter4_d_1_12" x="13" y="13" width="48" height="48" filterUnits="userSpaceOnUse" color-interpolation-filters="sRGB">
<feFlood flood-opacity="0" result="BackgroundImageFix"/>
<feColorMatrix in="SourceAlpha" type="matrix" values="0 0 0 0 0 0 0 0 0 0 0 0 0 0 0 0 0 0 127 0" result="hardAlpha"/>
<feOffset dy="4"/>
<feGaussianBlur stdDeviation="2"/>
<feComposite in2="hardAlpha" operator="out"/>
<feColorMatrix type="matrix" values="0 0 0 0 0 0 0 0 0 0 0 0 0 0 0 0 0 0 0.25 0"/>
<feBlend mode="normal" in2="BackgroundImageFix" result="effect1_dropShadow_1_12"/>
<feBlend mode="normal" in="SourceGraphic" in2="effect1_dropShadow_1_12" result="shape"/>
</filter>
</defs>
</svg>
